0
SECTION
2
HEADER
9
$ACADVER
1
AC1027
9
$INSUNITS
70
4
9
$MEASUREMENT
70
1
9
$LUNITS
70
2
9
$LUPREC
70
6
9
$EXTMIN
10
30.000000
20
86.000000
30
0.000000
9
$EXTMAX
10
260.000000
20
238.000000
30
0.000000
9
$HANDSEED
5
FFFF
0
ENDSEC
0
SECTION
2
TABLES
0
TABLE
2
LTYPE
5
100
100
AcDbSymbolTable
70
8
0
LTYPE
5
101
100
AcDbSymbolTableRecord
100
AcDbLinetypeTableRecord
2
CONTINUOUS
70
0
3
Solid line
72
65
73
0
40
0.000000
0
LTYPE
5
102
100
AcDbSymbolTableRecord
100
AcDbLinetypeTableRecord
2
HIDDEN
70
0
3
Hidden __ __ __ __
72
65
73
2
40
4.500000
49
3.000000
49
-1.500000
74
0
74
0
0
LTYPE
5
103
100
AcDbSymbolTableRecord
100
AcDbLinetypeTableRecord
2
CENTER
70
0
3
Center ____ _ ____
72
65
73
4
40
15.000000
49
10.000000
49
-1.500000
49
2.000000
49
-1.500000
74
0
74
0
74
0
74
0
0
LTYPE
5
104
100
AcDbSymbolTableRecord
100
AcDbLinetypeTableRecord
2
PHANTOM
70
0
3
Phantom ____ _ _ ____
72
65
73
6
40
18.500000
49
10.000000
49
-1.500000
49
2.000000
49
-1.500000
49
2.000000
49
-1.500000
74
0
74
0
74
0
74
0
74
0
74
0
0
ENDTAB
0
TABLE
2
LAYER
5
105
100
AcDbSymbolTable
70
8
0
LAYER
5
106
100
AcDbSymbolTableRecord
100
AcDbLayerTableRecord
2
0
70
0
62
7
420
16777215
6
CONTINUOUS
370
25
390
F
0
LAYER
5
107
100
AcDbSymbolTableRecord
100
AcDbLayerTableRecord
2
外形線
70
0
62
254
420
15263976
6
CONTINUOUS
370
50
390
F
0
LAYER
5
108
100
AcDbSymbolTableRecord
100
AcDbLayerTableRecord
2
中心線
70
0
62
13
420
16736095
6
CENTER
370
18
390
F
0
LAYER
5
109
100
AcDbSymbolTableRecord
100
AcDbLayerTableRecord
2
寸法
70
0
62
140
420
5886207
6
CONTINUOUS
370
18
390
F
0
LAYER
5
10A
100
AcDbSymbolTableRecord
100
AcDbLayerTableRecord
2
かくれ線
70
0
62
40
420
13214247
6
HIDDEN
370
25
390
F
0
LAYER
5
10B
100
AcDbSymbolTableRecord
100
AcDbLayerTableRecord
2
ハッチング
70
0
62
252
420
9080728
6
CONTINUOUS
370
13
390
F
0
LAYER
5
10C
100
AcDbSymbolTableRecord
100
AcDbLayerTableRecord
2
補助線
70
0
62
252
420
9080728
6
CONTINUOUS
370
13
390
F
290
0
0
LAYER
5
10D
100
AcDbSymbolTableRecord
100
AcDbLayerTableRecord
2
図面枠
70
4
62
254
420
15263976
6
CONTINUOUS
370
70
390
F
0
ENDTAB
0
TABLE
2
STYLE
5
10E
100
AcDbSymbolTable
70
1
0
STYLE
5
10F
100
AcDbSymbolTableRecord
100
AcDbTextStyleTableRecord
2
STANDARD
70
0
40
0.0
41
1.0
50
0.0
71
0
42
2.5
3
txt
4

0
ENDTAB
0
TABLE
2
APPID
5
110
100
AcDbSymbolTable
70
1
0
APPID
5
111
100
AcDbSymbolTableRecord
100
AcDbRegAppTableRecord
2
ACAD
70
0
0
ENDTAB
0
TABLE
2
DIMSTYLE
5
112
100
AcDbSymbolTable
70
1
0
DIMSTYLE
105
113
100
AcDbSymbolTableRecord
100
AcDbDimStyleTableRecord
2
JIS
70
0
40
1.0
41
3.5
140
3.5
147
1.0
271
2
0
ENDTAB
0
TABLE
2
BLOCK_RECORD
5
114
100
AcDbSymbolTable
70
2
0
BLOCK_RECORD
5
115
100
AcDbSymbolTableRecord
100
AcDbBlockTableRecord
2
*MODEL_SPACE
70
0
0
BLOCK_RECORD
5
116
100
AcDbSymbolTableRecord
100
AcDbBlockTableRecord
2
*PAPER_SPACE
70
0
0
ENDTAB
0
ENDSEC
0
SECTION
2
BLOCKS
0
BLOCK
5
117
100
AcDbEntity
8
0
100
AcDbBlockBegin
2
*Model_Space
70
0
10
0.0
20
0.0
30
0.0
3
*Model_Space
1

0
ENDBLK
5
118
100
AcDbEntity
8
0
100
AcDbBlockEnd
0
BLOCK
5
119
100
AcDbEntity
8
0
100
AcDbBlockBegin
2
*Paper_Space
70
0
10
0.0
20
0.0
30
0.0
3
*Paper_Space
1

0
ENDBLK
5
11A
100
AcDbEntity
8
0
100
AcDbBlockEnd
0
ENDSEC
0
SECTION
2
ENTITIES
0
LWPOLYLINE
5
11B
100
AcDbEntity
8
外形線
62
256
100
AcDbPolyline
90
8
70
1
10
70.000000
20
120.000000
10
170.000000
20
120.000000
42
0.414214000
10
180.000000
20
130.000000
10
180.000000
20
190.000000
42
0.414214000
10
170.000000
20
200.000000
10
70.000000
20
200.000000
42
0.414214000
10
60.000000
20
190.000000
10
60.000000
20
130.000000
42
0.414214000
0
CIRCLE
5
11C
100
AcDbEntity
8
外形線
62
256
100
AcDbCircle
10
84.000000
20
160.000000
30
0.0
40
4.500000
0
LINE
5
11D
100
AcDbEntity
8
中心線
62
256
100
AcDbLine
10
76.000000
20
160.000000
30
0.0
11
92.000000
21
160.000000
31
0.0
0
LINE
5
11E
100
AcDbEntity
8
中心線
62
256
100
AcDbLine
10
84.000000
20
152.000000
30
0.0
11
84.000000
21
168.000000
31
0.0
0
CIRCLE
5
11F
100
AcDbEntity
8
外形線
62
256
100
AcDbCircle
10
156.000000
20
160.000000
30
0.0
40
4.500000
0
LINE
5
120
100
AcDbEntity
8
中心線
62
256
100
AcDbLine
10
148.000000
20
160.000000
30
0.0
11
164.000000
21
160.000000
31
0.0
0
LINE
5
121
100
AcDbEntity
8
中心線
62
256
100
AcDbLine
10
156.000000
20
152.000000
30
0.0
11
156.000000
21
168.000000
31
0.0
0
ARC
5
122
100
AcDbEntity
8
外形線
62
256
100
AcDbCircle
10
112.000000
20
160.000000
30
0.0
40
6.000000
100
AcDbArc
50
90.000000
51
270.000000
0
ARC
5
123
100
AcDbEntity
8
外形線
62
256
100
AcDbCircle
10
128.000000
20
160.000000
30
0.0
40
6.000000
100
AcDbArc
50
270.000000
51
90.000000
0
LINE
5
124
100
AcDbEntity
8
外形線
62
256
100
AcDbLine
10
112.000000
20
166.000000
30
0.0
11
128.000000
21
166.000000
31
0.0
0
LINE
5
125
100
AcDbEntity
8
外形線
62
256
100
AcDbLine
10
112.000000
20
154.000000
30
0.0
11
128.000000
21
154.000000
31
0.0
0
LINE
5
126
100
AcDbEntity
8
中心線
62
256
100
AcDbLine
10
104.000000
20
160.000000
30
0.0
11
136.000000
21
160.000000
31
0.0
0
LINE
5
127
100
AcDbEntity
8
寸法
62
256
100
AcDbLine
10
60.000000
20
119.000000
30
0.0
11
60.000000
21
100.000000
31
0.0
0
LINE
5
128
100
AcDbEntity
8
寸法
62
256
100
AcDbLine
10
180.000000
20
119.000000
30
0.0
11
180.000000
21
100.000000
31
0.0
0
LINE
5
129
100
AcDbEntity
8
寸法
62
256
100
AcDbLine
10
60.000000
20
102.000000
30
0.0
11
180.000000
21
102.000000
31
0.0
0
SOLID
5
12A
100
AcDbEntity
8
寸法
62
256
100
AcDbTrace
10
60.000000
20
102.000000
30
0.0
11
56.543000
21
101.452000
31
0.0
12
56.543000
22
102.548000
32
0.0
13
56.543000
23
102.548000
33
0.0
0
SOLID
5
12B
100
AcDbEntity
8
寸法
62
256
100
AcDbTrace
10
180.000000
20
102.000000
30
0.0
11
183.457000
21
102.548000
31
0.0
12
183.457000
22
101.452000
32
0.0
13
183.457000
23
101.452000
33
0.0
0
TEXT
5
12C
100
AcDbEntity
8
寸法
62
256
100
AcDbText
10
120.000000
20
102.800000
30
0.0
40
3.500000
1
120
50
0.000000
7
STANDARD
72
1
11
120.000000
21
102.800000
31
0.0
100
AcDbText
73
1
0
LINE
5
12D
100
AcDbEntity
8
寸法
62
256
100
AcDbLine
10
181.000000
20
120.000000
30
0.0
11
200.000000
21
120.000000
31
0.0
0
LINE
5
12E
100
AcDbEntity
8
寸法
62
256
100
AcDbLine
10
181.000000
20
200.000000
30
0.0
11
200.000000
21
200.000000
31
0.0
0
LINE
5
12F
100
AcDbEntity
8
寸法
62
256
100
AcDbLine
10
198.000000
20
120.000000
30
0.0
11
198.000000
21
200.000000
31
0.0
0
SOLID
5
130
100
AcDbEntity
8
寸法
62
256
100
AcDbTrace
10
198.000000
20
120.000000
30
0.0
11
198.548000
21
116.543000
31
0.0
12
197.452000
22
116.543000
32
0.0
13
197.452000
23
116.543000
33
0.0
0
SOLID
5
131
100
AcDbEntity
8
寸法
62
256
100
AcDbTrace
10
198.000000
20
200.000000
30
0.0
11
197.452000
21
203.457000
31
0.0
12
198.548000
22
203.457000
32
0.0
13
198.548000
23
203.457000
33
0.0
0
TEXT
5
132
100
AcDbEntity
8
寸法
62
256
100
AcDbText
10
197.200000
20
160.000000
30
0.0
40
3.500000
1
80
50
90.000000
7
STANDARD
72
1
11
197.200000
21
160.000000
31
0.0
100
AcDbText
73
1
0
LINE
5
133
100
AcDbEntity
8
寸法
62
256
100
AcDbLine
10
84.000000
20
161.000000
30
0.0
11
84.000000
21
216.000000
31
0.0
0
LINE
5
134
100
AcDbEntity
8
寸法
62
256
100
AcDbLine
10
156.000000
20
161.000000
30
0.0
11
156.000000
21
216.000000
31
0.0
0
LINE
5
135
100
AcDbEntity
8
寸法
62
256
100
AcDbLine
10
84.000000
20
214.000000
30
0.0
11
156.000000
21
214.000000
31
0.0
0
SOLID
5
136
100
AcDbEntity
8
寸法
62
256
100
AcDbTrace
10
84.000000
20
214.000000
30
0.0
11
80.543000
21
213.452000
31
0.0
12
80.543000
22
214.548000
32
0.0
13
80.543000
23
214.548000
33
0.0
0
SOLID
5
137
100
AcDbEntity
8
寸法
62
256
100
AcDbTrace
10
156.000000
20
214.000000
30
0.0
11
159.457000
21
214.548000
31
0.0
12
159.457000
22
213.452000
32
0.0
13
159.457000
23
213.452000
33
0.0
0
TEXT
5
138
100
AcDbEntity
8
寸法
62
256
100
AcDbText
10
120.000000
20
214.800000
30
0.0
40
3.500000
1
72 ±0.1
50
0.000000
7
STANDARD
72
1
11
120.000000
21
214.800000
31
0.0
100
AcDbText
73
1
0
LINE
5
139
100
AcDbEntity
8
寸法
62
256
100
AcDbLine
10
87.182000
20
156.818000
30
0.0
11
58.000000
21
186.000000
31
0.0
0
SOLID
5
13A
100
AcDbEntity
8
寸法
62
256
100
AcDbTrace
10
80.818000
20
163.182000
30
0.0
11
77.986000
21
165.239000
31
0.0
12
78.761000
22
166.014000
32
0.0
13
78.761000
23
166.014000
33
0.0
0
SOLID
5
13B
100
AcDbEntity
8
寸法
62
256
100
AcDbTrace
10
87.182000
20
156.818000
30
0.0
11
90.014000
21
154.761000
31
0.0
12
89.239000
22
153.986000
32
0.0
13
89.239000
23
153.986000
33
0.0
0
TEXT
5
13C
100
AcDbEntity
8
寸法
62
256
100
AcDbText
10
57.434000
20
186.566000
30
0.0
40
3.500000
1
φ9 H7
50
315.000000
7
STANDARD
72
2
11
57.434000
21
186.566000
31
0.0
100
AcDbText
73
2
0
LINE
5
13D
100
AcDbEntity
8
寸法
62
256
100
AcDbLine
10
59.000000
20
120.000000
30
0.0
11
42.000000
21
120.000000
31
0.0
0
LINE
5
13E
100
AcDbEntity
8
寸法
62
256
100
AcDbLine
10
59.000000
20
160.000000
30
0.0
11
42.000000
21
160.000000
31
0.0
0
LINE
5
13F
100
AcDbEntity
8
寸法
62
256
100
AcDbLine
10
44.000000
20
120.000000
30
0.0
11
44.000000
21
160.000000
31
0.0
0
SOLID
5
140
100
AcDbEntity
8
寸法
62
256
100
AcDbTrace
10
44.000000
20
120.000000
30
0.0
11
44.548000
21
116.543000
31
0.0
12
43.452000
22
116.543000
32
0.0
13
43.452000
23
116.543000
33
0.0
0
SOLID
5
141
100
AcDbEntity
8
寸法
62
256
100
AcDbTrace
10
44.000000
20
160.000000
30
0.0
11
43.452000
21
163.457000
31
0.0
12
44.548000
22
163.457000
32
0.0
13
44.548000
23
163.457000
33
0.0
0
TEXT
5
142
100
AcDbEntity
8
寸法
62
256
100
AcDbText
10
43.200000
20
140.000000
30
0.0
40
3.500000
1
40
50
90.000000
7
STANDARD
72
1
11
43.200000
21
140.000000
31
0.0
100
AcDbText
73
1
0
LINE
5
143
100
AcDbEntity
8
寸法
62
256
100
AcDbLine
10
80.000000
20
86.000000
30
0.0
11
86.650000
21
86.000000
31
0.0
0
LINE
5
144
100
AcDbEntity
8
寸法
62
256
100
AcDbLine
10
86.650000
20
86.000000
30
0.0
11
86.650000
21
92.300000
31
0.0
0
LINE
5
145
100
AcDbEntity
8
寸法
62
256
100
AcDbLine
10
86.650000
20
92.300000
30
0.0
11
80.000000
21
92.300000
31
0.0
0
LINE
5
146
100
AcDbEntity
8
寸法
62
256
100
AcDbLine
10
80.000000
20
92.300000
30
0.0
11
80.000000
21
86.000000
31
0.0
0
LINE
5
147
100
AcDbEntity
8
寸法
62
256
100
AcDbLine
10
86.650000
20
86.000000
30
0.0
11
99.600000
21
86.000000
31
0.0
0
LINE
5
148
100
AcDbEntity
8
寸法
62
256
100
AcDbLine
10
99.600000
20
86.000000
30
0.0
11
99.600000
21
92.300000
31
0.0
0
LINE
5
149
100
AcDbEntity
8
寸法
62
256
100
AcDbLine
10
99.600000
20
92.300000
30
0.0
11
86.650000
21
92.300000
31
0.0
0
LINE
5
14A
100
AcDbEntity
8
寸法
62
256
100
AcDbLine
10
86.650000
20
92.300000
30
0.0
11
86.650000
21
86.000000
31
0.0
0
LINE
5
14B
100
AcDbEntity
8
寸法
62
256
100
AcDbLine
10
99.600000
20
86.000000
30
0.0
11
105.270000
21
86.000000
31
0.0
0
LINE
5
14C
100
AcDbEntity
8
寸法
62
256
100
AcDbLine
10
105.270000
20
86.000000
30
0.0
11
105.270000
21
92.300000
31
0.0
0
LINE
5
14D
100
AcDbEntity
8
寸法
62
256
100
AcDbLine
10
105.270000
20
92.300000
30
0.0
11
99.600000
21
92.300000
31
0.0
0
LINE
5
14E
100
AcDbEntity
8
寸法
62
256
100
AcDbLine
10
99.600000
20
92.300000
30
0.0
11
99.600000
21
86.000000
31
0.0
0
LINE
5
14F
100
AcDbEntity
8
寸法
62
256
100
AcDbLine
10
105.270000
20
86.000000
30
0.0
11
110.940000
21
86.000000
31
0.0
0
LINE
5
150
100
AcDbEntity
8
寸法
62
256
100
AcDbLine
10
110.940000
20
86.000000
30
0.0
11
110.940000
21
92.300000
31
0.0
0
LINE
5
151
100
AcDbEntity
8
寸法
62
256
100
AcDbLine
10
110.940000
20
92.300000
30
0.0
11
105.270000
21
92.300000
31
0.0
0
LINE
5
152
100
AcDbEntity
8
寸法
62
256
100
AcDbLine
10
105.270000
20
92.300000
30
0.0
11
105.270000
21
86.000000
31
0.0
0
LINE
5
153
100
AcDbEntity
8
寸法
62
256
100
AcDbLine
10
80.000000
20
89.150000
30
0.0
11
84.000000
21
155.500000
31
0.0
0
SOLID
5
154
100
AcDbEntity
8
寸法
62
256
100
AcDbTrace
10
84.000000
20
155.500000
30
0.0
11
83.661000
21
158.984000
31
0.0
12
84.755000
22
158.918000
32
0.0
13
84.755000
23
158.918000
33
0.0
0
TEXT
5
155
100
AcDbEntity
8
寸法
62
256
100
AcDbText
10
83.325000
20
89.150000
30
0.0
40
3.500000
1
⌖
50
0.000000
7
STANDARD
72
1
11
83.325000
21
89.150000
31
0.0
100
AcDbText
73
2
0
TEXT
5
156
100
AcDbEntity
8
寸法
62
256
100
AcDbText
10
93.125000
20
89.150000
30
0.0
40
3.500000
1
φ0.2
50
0.000000
7
STANDARD
72
1
11
93.125000
21
89.150000
31
0.0
100
AcDbText
73
2
0
TEXT
5
157
100
AcDbEntity
8
寸法
62
256
100
AcDbText
10
102.435000
20
89.150000
30
0.0
40
3.500000
1
A
50
0.000000
7
STANDARD
72
1
11
102.435000
21
89.150000
31
0.0
100
AcDbText
73
2
0
TEXT
5
158
100
AcDbEntity
8
寸法
62
256
100
AcDbText
10
108.105000
20
89.150000
30
0.0
40
3.500000
1
B
50
0.000000
7
STANDARD
72
1
11
108.105000
21
89.150000
31
0.0
100
AcDbText
73
2
0
LINE
5
159
100
AcDbEntity
8
寸法
62
256
100
AcDbLine
10
153.390000
20
208.500000
30
0.0
11
156.000000
21
204.000000
31
0.0
0
LINE
5
15A
100
AcDbEntity
8
寸法
62
256
100
AcDbLine
10
156.000000
20
204.000000
30
0.0
11
161.190000
21
213.000000
31
0.0
0
LINE
5
15B
100
AcDbEntity
8
寸法
62
256
100
AcDbLine
10
153.390000
20
208.500000
30
0.0
11
158.610000
21
208.500000
31
0.0
0
LINE
5
15C
100
AcDbEntity
8
寸法
62
256
100
AcDbLine
10
161.190000
20
213.000000
30
0.0
11
173.190000
21
213.000000
31
0.0
0
TEXT
5
15D
100
AcDbEntity
8
寸法
62
256
100
AcDbText
10
162.300000
20
213.600000
30
0.0
40
3.000000
1
Ra1.6
50
0.000000
7
STANDARD
72
0
11
162.300000
21
213.600000
31
0.0
100
AcDbText
73
1
0
LINE
5
15E
100
AcDbEntity
8
寸法
62
256
100
AcDbLine
10
120.000000
20
166.000000
30
0.0
11
138.000000
21
220.000000
31
0.0
0
LINE
5
15F
100
AcDbEntity
8
寸法
62
256
100
AcDbLine
10
138.000000
20
220.000000
30
0.0
11
152.000000
21
220.000000
31
0.0
0
SOLID
5
160
100
AcDbEntity
8
寸法
62
256
100
AcDbTrace
10
120.000000
20
166.000000
30
0.0
11
119.426000
21
162.547000
31
0.0
12
118.387000
22
162.894000
32
0.0
13
118.387000
23
162.894000
33
0.0
0
TEXT
5
161
100
AcDbEntity
8
寸法
62
256
100
AcDbText
10
145.000000
20
221.050000
30
0.0
40
3.500000
1
長穴 12×28
50
0.000000
7
STANDARD
72
1
11
145.000000
21
221.050000
31
0.0
100
AcDbText
73
1
0
LWPOLYLINE
5
162
100
AcDbEntity
8
外形線
62
256
100
AcDbPolyline
90
4
70
1
10
240.000000
20
120.000000
10
246.000000
20
120.000000
10
246.000000
20
200.000000
10
240.000000
20
200.000000
0
LINE
5
163
100
AcDbEntity
8
ハッチング
62
256
100
AcDbLine
10
245.426000
20
120.000000
30
0.0
11
246.000000
21
120.574000
31
0.0
0
LINE
5
164
100
AcDbEntity
8
ハッチング
62
256
100
AcDbLine
10
241.890000
20
120.000000
30
0.0
11
246.000000
21
124.110000
31
0.0
0
LINE
5
165
100
AcDbEntity
8
ハッチング
62
256
100
AcDbLine
10
240.000000
20
121.644000
30
0.0
11
246.000000
21
127.644000
31
0.0
0
LINE
5
166
100
AcDbEntity
8
ハッチング
62
256
100
AcDbLine
10
240.000000
20
125.180000
30
0.0
11
246.000000
21
131.180000
31
0.0
0
LINE
5
167
100
AcDbEntity
8
ハッチング
62
256
100
AcDbLine
10
240.000000
20
128.716000
30
0.0
11
246.000000
21
134.716000
31
0.0
0
LINE
5
168
100
AcDbEntity
8
ハッチング
62
256
100
AcDbLine
10
240.000000
20
132.252000
30
0.0
11
246.000000
21
138.252000
31
0.0
0
LINE
5
169
100
AcDbEntity
8
ハッチング
62
256
100
AcDbLine
10
240.000000
20
135.786000
30
0.0
11
246.000000
21
141.786000
31
0.0
0
LINE
5
16A
100
AcDbEntity
8
ハッチング
62
256
100
AcDbLine
10
240.000000
20
139.322000
30
0.0
11
246.000000
21
145.322000
31
0.0
0
LINE
5
16B
100
AcDbEntity
8
ハッチング
62
256
100
AcDbLine
10
240.000000
20
142.858000
30
0.0
11
246.000000
21
148.858000
31
0.0
0
LINE
5
16C
100
AcDbEntity
8
ハッチング
62
256
100
AcDbLine
10
240.000000
20
146.394000
30
0.0
11
246.000000
21
152.394000
31
0.0
0
LINE
5
16D
100
AcDbEntity
8
ハッチング
62
256
100
AcDbLine
10
240.000000
20
149.928000
30
0.0
11
246.000000
21
155.928000
31
0.0
0
LINE
5
16E
100
AcDbEntity
8
ハッチング
62
256
100
AcDbLine
10
240.000000
20
153.464000
30
0.0
11
246.000000
21
159.464000
31
0.0
0
LINE
5
16F
100
AcDbEntity
8
ハッチング
62
256
100
AcDbLine
10
240.000000
20
157.000000
30
0.0
11
246.000000
21
163.000000
31
0.0
0
LINE
5
170
100
AcDbEntity
8
ハッチング
62
256
100
AcDbLine
10
240.000000
20
160.536000
30
0.0
11
246.000000
21
166.536000
31
0.0
0
LINE
5
171
100
AcDbEntity
8
ハッチング
62
256
100
AcDbLine
10
240.000000
20
164.072000
30
0.0
11
246.000000
21
170.072000
31
0.0
0
LINE
5
172
100
AcDbEntity
8
ハッチング
62
256
100
AcDbLine
10
240.000000
20
167.606000
30
0.0
11
246.000000
21
173.606000
31
0.0
0
LINE
5
173
100
AcDbEntity
8
ハッチング
62
256
100
AcDbLine
10
240.000000
20
171.142000
30
0.0
11
246.000000
21
177.142000
31
0.0
0
LINE
5
174
100
AcDbEntity
8
ハッチング
62
256
100
AcDbLine
10
240.000000
20
174.678000
30
0.0
11
246.000000
21
180.678000
31
0.0
0
LINE
5
175
100
AcDbEntity
8
ハッチング
62
256
100
AcDbLine
10
240.000000
20
178.214000
30
0.0
11
246.000000
21
184.214000
31
0.0
0
LINE
5
176
100
AcDbEntity
8
ハッチング
62
256
100
AcDbLine
10
240.000000
20
181.748000
30
0.0
11
246.000000
21
187.748000
31
0.0
0
LINE
5
177
100
AcDbEntity
8
ハッチング
62
256
100
AcDbLine
10
240.000000
20
185.284000
30
0.0
11
246.000000
21
191.284000
31
0.0
0
LINE
5
178
100
AcDbEntity
8
ハッチング
62
256
100
AcDbLine
10
240.000000
20
188.820000
30
0.0
11
246.000000
21
194.820000
31
0.0
0
LINE
5
179
100
AcDbEntity
8
ハッチング
62
256
100
AcDbLine
10
240.000000
20
192.356000
30
0.0
11
246.000000
21
198.356000
31
0.0
0
LINE
5
17A
100
AcDbEntity
8
ハッチング
62
256
100
AcDbLine
10
240.000000
20
195.890000
30
0.0
11
244.110000
21
200.000000
31
0.0
0
LINE
5
17B
100
AcDbEntity
8
ハッチング
62
256
100
AcDbLine
10
240.000000
20
199.426000
30
0.0
11
240.574000
21
200.000000
31
0.0
0
LINE
5
17C
100
AcDbEntity
8
寸法
62
256
100
AcDbLine
10
240.000000
20
119.000000
30
0.0
11
240.000000
21
100.000000
31
0.0
0
LINE
5
17D
100
AcDbEntity
8
寸法
62
256
100
AcDbLine
10
246.000000
20
119.000000
30
0.0
11
246.000000
21
100.000000
31
0.0
0
LINE
5
17E
100
AcDbEntity
8
寸法
62
256
100
AcDbLine
10
233.000000
20
102.000000
30
0.0
11
253.000000
21
102.000000
31
0.0
0
SOLID
5
17F
100
AcDbEntity
8
寸法
62
256
100
AcDbTrace
10
240.000000
20
102.000000
30
0.0
11
243.457000
21
102.548000
31
0.0
12
243.457000
22
101.452000
32
0.0
13
243.457000
23
101.452000
33
0.0
0
SOLID
5
180
100
AcDbEntity
8
寸法
62
256
100
AcDbTrace
10
246.000000
20
102.000000
30
0.0
11
242.543000
21
101.452000
31
0.0
12
242.543000
22
102.548000
32
0.0
13
242.543000
23
102.548000
33
0.0
0
TEXT
5
181
100
AcDbEntity
8
寸法
62
256
100
AcDbText
10
243.000000
20
102.800000
30
0.0
40
3.500000
1
t6
50
0.000000
7
STANDARD
72
1
11
243.000000
21
102.800000
31
0.0
100
AcDbText
73
1
0
TEXT
5
182
100
AcDbEntity
8
寸法
62
256
100
AcDbText
10
236.000000
20
212.000000
30
0.0
40
5.000000
1
断面 A-A
50
0.000000
7
STANDARD
100
AcDbText
0
TEXT
5
183
100
AcDbEntity
8
寸法
62
256
100
AcDbText
10
60.000000
20
234.000000
30
0.0
40
4.000000
1
材質 SS400 / 板厚 6 / 指示なき角部 C0.5
50
0.000000
7
STANDARD
100
AcDbText
0
ENDSEC
0
SECTION
2
OBJECTS
0
DICTIONARY
5
184
100
AcDbDictionary
281
1
0
ENDSEC
0
EOF
